<?xml version="1.0" encoding="utf-8"?>
<!-- Generator: Adobe Illustrator 19.0.0, SVG Export Plug-In . SVG Version: 6.00 Build 0)  -->
<svg version="1.1" id="text" xmlns="http://www.w3.org/2000/svg" xmlns:xlink="http://www.w3.org/1999/xlink" x="0px" y="0px"
	 width="316.3px" height="51.9px" viewBox="0 0 316.3 51.9" enable-background="new 0 0 316.3 51.9" xml:space="preserve">
<g id="legebam">
	<path id="XMLID_3_" fill="#1A1A1A" d="M0,50.7V1.2h10.8v42.4h23.4v7H0z"/>
	<path id="XMLID_5_" fill="#1A1A1A" d="M39.1,50.7V1.2h32.5V8H50v13.8h17.8v6.6H50v15.2h23.3v7H39.1z"/>
	<path id="XMLID_7_" fill="#1A1A1A" d="M121.2,49.5c-6.5,1.6-12.1,2.4-16.9,2.4c-9,0-15.9-2.2-20.7-6.7c-4.8-4.5-7.2-10.9-7.2-19.3
		c0-8.3,2.4-14.7,7.2-19.2C88.4,2.2,95.3,0,104.2,0c5.7,0,11.3,0.6,16.9,1.9v8c-6.5-2.1-11.8-3.2-16-3.2c-5.5,0-9.8,1.7-12.8,5
		c-3,3.3-4.5,8.1-4.5,14.2c0,5.9,1.6,10.6,4.8,13.9c3.2,3.4,7.6,5.1,13.3,5.1c1.2,0,2.7-0.2,4.4-0.5V28.2h10.8V49.5z"/>
	<path id="XMLID_9_" fill="#1A1A1A" d="M130.6,50.7V1.2h32.5V8h-21.7v13.8h17.8v6.6h-17.8v15.2h23.3v7H130.6z"/>
	<path id="XMLID_11_" fill="#1A1A1A" d="M171.1,50.7V1.2h17.7c5.2,0,9.2,0.9,11.9,2.8c2.7,1.9,4.1,4.6,4.1,8.2
		c0,5.9-4.2,10.2-12.5,12.6c9.7,2.2,14.6,6.8,14.6,13.6c0,3.9-1.4,7-4.3,9.1s-6.9,3.2-12.3,3.2H171.1z M181.3,21.8h2.6
		c3,0,5.5-0.7,7.3-2.1c1.8-1.4,2.7-3.4,2.7-5.8c0-2.3-0.7-3.8-2.2-4.6c-1.4-0.8-4.2-1.2-8.2-1.2h-2.2V21.8z M181.3,43.7h2.3
		c4.5,0,7.7-0.5,9.4-1.4c1.7-0.9,2.6-2.6,2.6-5.1c0-2.5-1.2-4.6-3.5-6.3c-2.3-1.7-5.2-2.5-8.7-2.5h-2.1V43.7z"/>
	<path id="XMLID_15_" fill="#1A1A1A" d="M208,50.7l20.2-49.4h10.8l20.2,49.4h-11.1l-5.4-13.2h-21.5l-5.4,13.2H208z M224,30.9h16.2
		l-8.1-19.7L224,30.9z"/>
	<path id="XMLID_18_" fill="#1A1A1A" d="M264,50.7V1.2h14.3L290.8,36l12.9-34.8h12.6v49.4h-10V13.4l-12.7,34h-8.7l-12.4-34.5v37.8
		H264z"/>
</g>
</svg>
